<svg width="281" height="239" viewBox="0 0 281 239" fill="none" xmlns="http://www.w3.org/2000/svg">
<path d="M25.7719 216.974L13.5933 212.542L14.3114 210.568L24.8798 209.319L17.5821 201.581L18.3043 199.596L30.4829 204.028L29.654 206.306L22.3017 203.631L28.3203 209.971L27.9305 211.042L19.2445 212.032L26.5968 214.707L25.7719 216.974ZM31.893 201.026L20.7039 194.487L21.9755 192.311L25.8606 194.582L26.7204 193.111C26.9061 192.793 27.1128 192.455 27.3406 192.097C27.5683 191.739 27.7845 191.448 27.9891 191.225C28.4646 190.697 28.9766 190.297 29.5251 190.024C30.0735 189.752 30.6581 189.639 31.2788 189.687C31.8967 189.724 32.5544 189.946 33.252 190.354C34.2259 190.923 34.8556 191.629 35.141 192.472C35.4196 193.312 35.4068 194.221 35.1025 195.202C35.0032 195.514 34.8529 195.867 34.6516 196.259C34.4474 196.64 34.2525 196.989 34.0668 197.307L31.893 201.026ZM31.4241 197.833L32.3989 196.165C32.5039 195.986 32.614 195.781 32.7294 195.552C32.8448 195.323 32.9328 195.101 32.9934 194.887C33.0864 194.505 33.0612 194.097 32.9176 193.661C32.774 193.225 32.4535 192.861 31.9562 192.571C31.4451 192.272 30.9609 192.165 30.5036 192.25C30.0503 192.328 29.6638 192.537 29.3439 192.879C29.1906 193.03 29.0485 193.202 28.9176 193.394C28.7908 193.579 28.6769 193.758 28.576 193.931L27.6011 195.599L31.4241 197.833ZM37.609 191.246L26.4199 184.707L27.6854 182.541L38.8745 189.081L37.609 191.246ZM43.6551 182.528L33.8628 174.038L37.5966 169.731C37.8429 169.447 38.1074 169.179 38.3899 168.926C38.6665 168.668 38.9293 168.457 39.1784 168.292C39.7471 167.916 40.392 167.734 41.113 167.745C41.828 167.751 42.5301 168.053 43.2191 168.65C43.612 168.991 43.8921 169.339 44.0593 169.696C44.2204 170.048 44.306 170.413 44.316 170.792C44.3168 170.962 44.3033 171.131 44.2754 171.297C44.2476 171.463 44.2047 171.617 44.1466 171.757C44.3768 171.565 44.6466 171.412 44.9562 171.3C45.4197 171.119 45.9094 171.067 46.4253 171.144C46.9403 171.209 47.4729 171.48 48.0229 171.957C48.6818 172.528 49.096 173.168 49.2656 173.876C49.4291 174.579 49.3383 175.295 48.9932 176.022C48.8605 176.31 48.6805 176.609 48.4531 176.92C48.231 177.225 47.9968 177.52 47.7505 177.804L43.6551 182.528ZM43.8255 179.308L46.1523 176.625C46.2623 176.498 46.376 176.342 46.4933 176.158C46.6106 175.974 46.7032 175.8 46.7709 175.636C46.9221 175.291 46.9357 174.964 46.8116 174.655C46.6927 174.34 46.5064 174.073 46.2525 173.853C45.908 173.554 45.5543 173.406 45.1916 173.409C44.8228 173.407 44.4877 173.519 44.1862 173.745C44.039 173.829 43.8996 173.941 43.7678 174.081C43.6359 174.221 43.5255 174.342 43.4364 174.445L41.1961 177.029L43.8255 179.308ZM39.6728 175.708L41.5123 173.587C41.6642 173.411 41.8098 173.225 41.9488 173.028C42.0819 172.826 42.1788 172.635 42.2397 172.454C42.3534 172.14 42.3543 171.834 42.2423 171.535C42.1243 171.232 41.9383 170.97 41.6844 170.75C41.4064 170.509 41.1035 170.358 40.7759 170.296C40.4482 170.234 40.132 170.294 39.8273 170.474C39.6149 170.597 39.4061 170.771 39.2009 170.995C38.9949 171.208 38.8657 171.345 38.8133 171.406L37.0525 173.437L39.6728 175.708ZM55.381 170.408C54.6792 171.063 53.9714 171.483 53.2575 171.668C52.5382 171.847 51.8564 171.837 51.2123 171.64C50.5686 171.431 50.0065 171.069 49.5262 170.554C49.0785 170.075 48.7703 169.575 48.6014 169.054C48.4326 168.533 48.3974 167.991 48.4961 167.428C48.5892 166.86 48.8048 166.27 49.1428 165.659C49.4492 165.143 49.8249 164.59 50.2697 164C50.7145 163.41 51.1911 162.801 51.6995 162.173C52.2138 161.54 52.7222 160.912 53.2247 160.289L52.9019 161.28C52.2203 160.527 51.5493 160.124 50.8888 160.073C50.2287 160.011 49.5039 160.348 48.7144 161.085C48.2173 161.549 47.8704 162.092 47.6735 162.713C47.4712 163.329 47.5365 163.979 47.8695 164.664L45.6677 165.735C45.1428 164.704 44.9841 163.642 45.1914 162.552C45.4046 161.455 46.058 160.397 47.1516 159.376C47.9996 158.584 48.8729 158.043 49.7716 157.751C50.6707 157.448 51.5585 157.473 52.435 157.826C52.8764 157.994 53.2757 158.234 53.6328 158.546C53.99 158.858 54.3542 159.213 54.7254 159.611L60.1706 165.444L58.5478 166.959L56.5252 164.793L57.1031 164.779C57.3881 165.869 57.3931 166.877 57.1179 167.802C56.843 168.715 56.2641 169.583 55.381 170.408ZM54.3054 168.605C54.8259 168.119 55.1886 167.611 55.3937 167.08C55.5933 166.543 55.6734 166.025 55.634 165.526C55.5946 165.027 55.4653 164.589 55.2462 164.214C55.0835 163.84 54.8443 163.473 54.5285 163.111C54.2185 162.743 53.9652 162.455 53.7687 162.244L54.5699 161.906C54.0729 162.535 53.6202 163.105 53.212 163.617C52.8038 164.13 52.4395 164.601 52.119 165.031C51.799 165.451 51.5335 165.846 51.3225 166.218C51.153 166.541 51.0261 166.856 50.9419 167.164C50.8635 167.467 50.8477 167.761 50.8945 168.046C50.9472 168.325 51.0909 168.59 51.3256 168.842C51.5549 169.087 51.8292 169.258 52.1485 169.354C52.4624 169.444 52.8024 169.433 53.1685 169.321C53.5346 169.209 53.9136 168.97 54.3054 168.605ZM67.1473 160.33C66.0974 161.143 65.0244 161.6 63.9282 161.7C62.8321 161.8 61.7719 161.594 60.7478 161.082C59.7301 160.565 58.8163 159.79 58.0066 158.758C57.1948 157.697 56.6746 156.607 56.446 155.489C56.2125 154.365 56.2869 153.285 56.6692 152.25C57.0516 151.215 57.7614 150.296 58.7986 149.493C59.9181 148.626 61.0886 148.164 62.3103 148.108C63.5383 148.048 64.6536 148.403 65.6561 149.175L64.1237 151.272C63.4819 150.849 62.8139 150.653 62.12 150.684C61.4274 150.705 60.7933 150.938 60.2178 151.384C59.5664 151.888 59.152 152.457 58.9746 153.09C58.7923 153.717 58.8057 154.375 59.0149 155.063C59.224 155.751 59.5899 156.439 60.1127 157.127C60.9371 158.178 61.8388 158.846 62.8177 159.13C63.803 159.409 64.7637 159.186 65.6997 158.461C66.3385 157.966 66.7413 157.421 66.908 156.827C67.0762 156.221 67.0516 155.562 66.8341 154.85L69.2127 153.766C69.6516 155.025 69.6934 156.222 69.3382 157.358C68.9781 158.487 68.2478 159.477 67.1473 160.33ZM82.3539 149.85C81.2518 150.532 80.1423 150.875 79.0254 150.879C77.9086 150.883 76.8597 150.586 75.8787 149.989C74.9004 149.381 74.0577 148.505 73.3506 147.362C72.6393 146.213 72.2388 145.063 72.1491 143.915C72.0552 142.759 72.2636 141.69 72.7744 140.706C73.281 139.715 74.0751 138.885 75.1569 138.216C76.259 137.534 77.3685 137.191 78.4853 137.187C79.6022 137.183 80.6511 137.479 81.632 138.077C82.613 138.674 83.4549 139.54 84.1578 140.677C84.8691 141.826 85.2717 142.979 85.3656 144.134C85.4621 145.279 85.2591 146.35 84.7568 147.347C84.2502 148.338 83.4493 149.172 82.3539 149.85ZM81.1102 147.839C82.1647 147.187 82.7317 146.347 82.811 145.32C82.893 144.281 82.5867 143.201 81.8922 142.078C81.1809 140.928 80.3474 140.174 79.3917 139.815C78.4385 139.445 77.4415 139.582 76.4006 140.226C75.6862 140.668 75.1987 141.196 74.9381 141.808C74.6733 142.414 74.6054 143.073 74.7344 143.783C74.8593 144.486 75.1532 145.212 75.6161 145.961C76.3316 147.117 77.1694 147.878 78.1293 148.244C79.0893 148.61 80.0829 148.475 81.1102 147.839ZM96.6128 141.261L94.4721 137.289C94.191 137.695 93.8241 138.102 93.3713 138.509C92.9147 138.91 92.3977 139.266 91.8202 139.577C90.6512 140.207 89.5706 140.453 88.5785 140.316C87.5896 140.167 86.7219 139.653 85.9755 138.774C85.7597 138.509 85.5542 138.229 85.3591 137.934C85.1601 137.632 84.9869 137.353 84.8394 137.096C84.6989 136.836 84.5946 136.642 84.5262 136.515L83.0801 133.832L85.3195 132.625L86.7657 135.308C86.8643 135.491 87.0023 135.73 87.1796 136.026C87.3531 136.314 87.5475 136.582 87.7627 136.829C88.2381 137.391 88.76 137.719 89.3284 137.812C89.8931 137.898 90.5416 137.744 91.274 137.35C91.8021 137.065 92.2414 136.742 92.5918 136.38C92.9455 136.008 93.2079 135.635 93.3789 135.261L90.4639 129.852L92.6927 128.651L98.8417 140.059L96.6128 141.261ZM107.079 136.137C105.937 136.733 104.804 137.009 103.68 136.965C102.559 136.91 101.524 136.562 100.575 135.92C99.6294 135.268 98.8472 134.35 98.2284 133.166C97.5726 131.911 97.2378 130.7 97.2241 129.534C97.2174 128.364 97.5044 127.307 98.0851 126.363C98.6658 125.418 99.5162 124.653 100.636 124.068C101.806 123.457 102.945 123.209 104.053 123.325C105.157 123.434 106.172 123.883 107.099 124.671C108.033 125.456 108.816 126.559 109.45 127.979L107.227 129.14L106.805 128.332C106.094 127.006 105.324 126.154 104.494 125.775C103.671 125.393 102.757 125.465 101.75 125.991C100.637 126.573 99.9834 127.361 99.7901 128.356C99.5968 129.35 99.8465 130.51 100.539 131.836C101.199 133.098 101.99 133.93 102.914 134.333C103.833 134.728 104.821 134.649 105.878 134.097C106.572 133.734 107.09 133.265 107.43 132.69C107.774 132.104 107.934 131.443 107.91 130.706L110.452 130.258C110.542 131.519 110.282 132.671 109.671 133.712C109.056 134.747 108.192 135.555 107.079 136.137ZM100.144 132.842L99.2382 131.108L107.438 126.823L108.344 128.557L100.144 132.842ZM114.503 131.861L108.568 120.34L110.798 119.192L113.221 123.896L118.843 121L116.42 116.296L118.649 115.147L124.584 126.668L122.355 127.817L119.926 123.102L114.304 125.998L116.733 130.713L114.503 131.861ZM127.572 125.141L121.711 113.582L123.959 112.443L125.994 116.456L128.273 115.3C128.602 115.134 128.955 114.964 129.333 114.79C129.719 114.612 130.061 114.484 130.361 114.403C131.047 114.217 131.691 114.16 132.292 114.231C132.901 114.3 133.457 114.52 133.96 114.893C134.459 115.259 134.892 115.802 135.257 116.522C135.767 117.529 135.91 118.465 135.686 119.332C135.465 120.189 134.961 120.946 134.174 121.605C133.922 121.814 133.604 122.029 133.223 122.249C132.845 122.459 132.495 122.645 132.174 122.808L127.572 125.141ZM128.908 122.204L131.391 120.945C131.569 120.854 131.769 120.744 131.99 120.614C132.211 120.484 132.405 120.345 132.573 120.198C132.864 119.924 133.068 119.565 133.184 119.121C133.299 118.676 133.227 118.197 132.966 117.684C132.699 117.156 132.35 116.803 131.919 116.627C131.496 116.447 131.058 116.414 130.604 116.527C130.386 116.575 130.174 116.642 129.967 116.729C129.76 116.816 129.567 116.905 129.388 116.995L126.905 118.254L128.908 122.204ZM136.387 113.325L135.489 111.52L141.936 108.314L142.834 110.119L136.387 113.325ZM153.762 112.458C152.599 113.029 151.461 113.263 150.349 113.158C149.237 113.054 148.222 112.657 147.304 111.967C146.39 111.266 145.636 110.313 145.044 109.106C144.448 107.893 144.161 106.71 144.183 105.558C144.202 104.399 144.514 103.355 145.118 102.425C145.718 101.489 146.59 100.74 147.731 100.179C148.894 99.6077 150.032 99.3742 151.144 99.4787C152.256 99.5832 153.271 99.9804 154.189 100.67C155.107 101.36 155.861 102.305 156.45 103.504C157.046 104.717 157.335 105.904 157.316 107.063C157.3 108.211 156.994 109.257 156.397 110.201C155.797 111.138 154.918 111.89 153.762 112.458ZM152.72 110.336C153.833 109.789 154.479 109.009 154.658 107.994C154.841 106.968 154.641 105.863 154.059 104.678C153.463 103.465 152.707 102.633 151.79 102.183C150.878 101.722 149.872 101.761 148.773 102.301C148.019 102.671 147.483 103.149 147.164 103.733C146.841 104.31 146.71 104.959 146.769 105.678C146.825 106.391 147.047 107.142 147.435 107.932C148.034 109.153 148.794 109.992 149.714 110.449C150.634 110.906 151.636 110.869 152.72 110.336ZM168.615 104.897L166.678 100.822C166.377 101.213 165.99 101.601 165.517 101.985C165.041 102.362 164.506 102.691 163.914 102.972C162.714 103.542 161.622 103.733 160.639 103.545C159.659 103.347 158.818 102.789 158.117 101.874C157.915 101.598 157.724 101.307 157.544 101.003C157.361 100.692 157.202 100.404 157.068 100.14C156.941 99.8728 156.846 99.6741 156.785 99.544L155.477 96.7909L157.774 95.6992L159.082 98.4523C159.172 98.6402 159.297 98.886 159.459 99.1899C159.618 99.4865 159.799 99.7639 160.001 100.022C160.447 100.607 160.952 100.961 161.515 101.083C162.074 101.198 162.73 101.077 163.481 100.72C164.023 100.463 164.478 100.162 164.847 99.8189C165.219 99.465 165.5 99.1056 165.69 98.7409L163.053 93.1914L165.34 92.1048L170.902 103.811L168.615 104.897ZM179.323 100.298C178.154 100.838 177.008 101.059 175.888 100.959C174.771 100.849 173.754 100.451 172.837 99.7639C171.925 99.0662 171.189 98.1109 170.628 96.898C170.035 95.6124 169.76 94.3869 169.803 93.2213C169.854 92.0524 170.192 91.0106 170.818 90.0958C171.444 89.181 172.331 88.4587 173.479 87.9287C174.677 87.3753 175.827 87.1837 176.928 87.3539C178.025 87.5169 179.017 88.0148 179.904 88.8477C180.798 89.6773 181.527 90.8167 182.09 92.266L179.814 93.3174L179.431 92.4894C178.786 91.1307 178.058 90.2419 177.248 89.823C176.445 89.4007 175.528 89.4277 174.497 89.904C173.356 90.4305 172.665 91.1858 172.424 92.1698C172.182 93.1538 172.375 94.3249 173.002 95.6831C173.599 96.9759 174.348 97.8457 175.251 98.2925C176.15 98.7321 177.141 98.702 178.223 98.2023C178.935 97.8736 179.475 97.4304 179.843 96.8727C180.215 96.3044 180.407 95.6517 180.419 94.9147L182.979 94.5916C183.008 95.856 182.692 96.9934 182.03 98.0037C181.366 99.0068 180.463 99.7716 179.323 100.298ZM172.558 96.668L171.738 94.8922L180.137 91.0134L180.957 92.7892L172.558 96.668ZM186.953 96.4037L181.683 84.5635L183.974 83.5437L186.126 88.3784L191.904 85.8069L189.752 80.9721L192.043 79.9523L197.313 91.7924L195.022 92.8123L192.865 87.9666L187.087 90.5381L189.244 95.3838L186.953 96.4037ZM200.387 90.4481L195.271 78.5404L197.587 77.5457L199.363 81.6803L201.711 80.6714C202.05 80.5262 202.413 80.3788 202.801 80.2293C203.197 80.0766 203.548 79.9697 203.852 79.9085C204.548 79.7661 205.194 79.7498 205.79 79.8596C206.393 79.9662 206.934 80.2215 207.412 80.6255C207.887 81.0222 208.284 81.5917 208.603 82.3341C209.049 83.3705 209.132 84.3143 208.853 85.1654C208.579 86.006 208.028 86.7302 207.201 87.3381C206.935 87.5306 206.605 87.7247 206.21 87.9204C205.819 88.1056 205.459 88.2693 205.128 88.4114L200.387 90.4481ZM201.907 87.6011L204.464 86.5022C204.648 86.4233 204.855 86.3259 205.083 86.2102C205.312 86.0944 205.515 85.9682 205.691 85.8315C206 85.577 206.226 85.2317 206.37 84.7957C206.513 84.3596 206.471 83.877 206.244 83.3477C206.01 82.8038 205.684 82.4301 205.266 82.2267C204.855 82.0201 204.42 81.959 203.96 82.0435C203.739 82.0773 203.523 82.131 203.311 82.2047C203.098 82.2785 202.9 82.3548 202.717 82.4337L200.159 83.5326L201.907 87.6011ZM215.777 83.8137L217.44 75.8046L210.368 72.0331L212.851 70.8284L219.671 74.5485L216.911 68.8588L218.941 67.8741L221.701 73.5638L223 65.9046L225.494 64.6946L224.08 72.5832L231.4 76.2342L228.776 77.5071L221.837 73.8445L224.598 79.5342L222.568 80.519L219.808 74.8293L218.401 82.5409L215.777 83.8137ZM233.356 78.3591L230.679 74.2597C231.275 73.8704 231.572 73.3951 231.568 72.8336C231.567 72.2612 231.331 71.4457 230.859 70.3872C230.573 69.7432 230.245 69.0733 229.877 68.3775C229.515 67.6773 229.108 66.9301 228.657 66.1359C228.2 65.335 227.694 64.457 227.137 63.502L234.914 58.4238L240.898 67.5872L241.963 66.8917L244.64 70.9912L242.65 72.2902L241.076 69.8788L233.781 74.6421L235.356 77.0535L233.356 78.3591ZM233.684 72.298L238.788 68.965L233.906 61.4896L230.108 63.9696C230.37 64.4292 230.638 64.9044 230.91 65.3952C231.19 65.8816 231.46 66.369 231.722 66.8574C231.99 67.3414 232.239 67.8098 232.467 68.2624C232.696 68.715 232.892 69.1318 233.054 69.5128C233.32 70.0945 233.511 70.6 233.629 71.0293C233.754 71.4543 233.772 71.8772 233.684 72.298ZM249.77 63.9672C248.747 64.75 247.678 65.2157 246.562 65.3642C245.449 65.5016 244.369 65.3353 243.325 64.8655C242.281 64.3845 241.354 63.6136 240.542 62.5527C239.681 61.4283 239.144 60.2927 238.932 59.1459C238.725 57.9943 238.827 56.9036 239.238 55.874C239.649 54.8443 240.356 53.9453 241.36 53.177C242.408 52.3747 243.488 51.9361 244.599 51.8612C245.705 51.78 246.782 52.0486 247.83 52.6672C248.884 53.2809 249.845 54.2331 250.712 55.5239L248.72 57.0483L248.166 56.3241C247.239 55.1395 246.335 54.4316 245.452 54.2002C244.576 53.964 243.687 54.1911 242.785 54.8816C241.788 55.645 241.279 56.5332 241.258 57.5462C241.238 58.5593 241.682 59.6598 242.592 60.8477C243.457 61.9785 244.379 62.6631 245.357 62.9015C246.331 63.1336 247.291 62.8874 248.238 62.1629C248.86 61.6864 249.29 61.1357 249.527 60.511C249.766 59.875 249.81 59.1961 249.661 58.4744L252.088 57.5985C252.393 58.826 252.333 60.005 251.909 61.1357C251.48 62.2599 250.767 63.2037 249.77 63.9672ZM242.374 61.9059L241.185 60.3527L248.532 54.7292L249.721 56.2825L242.374 61.9059ZM256.04 58.6568L247.885 48.5842L249.517 47.2628L259.219 51.6366L256.951 41.2447L258.592 39.9158L266.747 49.9884L264.863 51.5137L259.94 45.4328L261.832 53.9677L260.946 54.6851L252.992 51.0582L257.915 57.1391L256.04 58.6568ZM270.273 47.0836L268.714 45.2114L270.642 43.6068L272.2 45.4791L270.273 47.0836ZM267.509 43.7634L259.218 33.8027L261.145 32.1982L269.436 42.1588L267.509 43.7634ZM276.631 41.7905L275.073 39.9183L277.001 38.3138L278.559 40.186L276.631 41.7905ZM273.868 38.4703L265.576 28.5096L267.504 26.9051L275.795 36.8658L273.868 38.4703Z" fill="black"/>
</svg>
